<?xml version="1.0" encoding="UTF-8" standalone="no"?>
<!-- Created with Inkscape (http://www.inkscape.org/) -->

<svg
   xmlns:dc="http://purl.org/dc/elements/1.1/"
   xmlns:cc="http://creativecommons.org/ns#"
   xmlns:rdf="http://www.w3.org/1999/02/22-rdf-syntax-ns#"
   xmlns:svg="http://www.w3.org/2000/svg"
   xmlns="http://www.w3.org/2000/svg"
   xmlns:sodipodi="http://sodipodi.sourceforge.net/DTD/sodipodi-0.dtd"
   xmlns:inkscape="http://www.inkscape.org/namespaces/inkscape"
   width="500"
   height="500"
   id="svg2"
   version="1.1"
   inkscape:version="0.48.4 r9939"
   sodipodi:docname="film.svg">
  <defs
     id="defs4" />
  <sodipodi:namedview
     id="base"
     pagecolor="#ffffff"
     bordercolor="#666666"
     borderopacity="1.0"
     inkscape:pageopacity="0.0"
     inkscape:pageshadow="2"
     inkscape:zoom="0.35355339"
     inkscape:cx="869.64392"
     inkscape:cy="723.4989"
     inkscape:document-units="px"
     inkscape:current-layer="layer1"
     showgrid="false"
     inkscape:showpageshadow="false"
     inkscape:window-width="1301"
     inkscape:window-height="744"
     inkscape:window-x="65"
     inkscape:window-y="24"
     inkscape:window-maximized="1" />
  <metadata
     id="metadata7">
    <rdf:RDF>
      <cc:Work
         rdf:about="">
        <dc:format>image/svg+xml</dc:format>
        <dc:type
           rdf:resource="http://purl.org/dc/dcmitype/StillImage" />
        <dc:title />
      </cc:Work>
    </rdf:RDF>
  </metadata>
  <g
     inkscape:label="Layer 1"
     inkscape:groupmode="layer"
     id="layer1"
     transform="translate(0,-552.36218)">
    <path
       style="opacity:0.2;fill:#000000;fill-opacity:1;stroke:none"
       d="m 48.774345,771.40579 -176.776735,176.77672 17.67767,17.6777 30.052041,-30.0521 c 2.938029,-2.938 7.668573,-2.938 10.606602,0 l 60.1040757,60.1041 c 2.938029,2.9381 2.938029,7.66859 0,10.60659 l -30.0520377,30.0521 17.67767,17.6776 176.776729,-176.77669 -17.67767,-17.67767 -30.05204,30.05204 c -2.93803,2.93803 -7.668565,2.93803 -10.606595,0 L 36.399976,829.7421 c -2.938029,-2.93803 -2.938029,-7.66857 0,-10.6066 l 30.052039,-30.05204 -17.67767,-17.67767 z m 1.76777,8.83884 7.07106,7.07107 c 0.97935,0.97934 0.97935,2.55619 0,3.53553 l -7.07106,7.07107 c -0.97935,0.97934 -2.55619,0.97934 -3.53554,0 l -7.071066,-7.07107 c -0.979342,-0.97934 -0.979342,-2.55619 0,-3.53553 l 7.071066,-7.07107 c 0.97935,-0.97934 2.55619,-0.97934 3.53554,0 z m 88.388335,88.38835 7.07107,7.07106 c 0.97934,0.97935 0.97934,2.55619 0,3.53554 l -7.07107,7.07107 c -0.97934,0.97934 -2.55619,0.97934 -3.53553,0 l -7.07107,-7.07107 c -0.97934,-0.97935 -0.97934,-2.55619 0,-3.53554 l 7.07107,-7.07106 c 0.97934,-0.97935 2.55619,-0.97935 3.53553,0 z M 32.864442,797.9223 l 7.071067,7.07107 c 0.979343,0.97934 0.979343,2.55619 0,3.53553 l -7.071067,7.07107 c -0.979343,0.97934 -2.556191,0.97934 -3.535534,0 L 22.25784,808.5289 c -0.979343,-0.97934 -0.979343,-2.55619 0,-3.53553 l 7.071068,-7.07107 c 0.979343,-0.97934 2.556191,-0.97934 3.535534,0 z m 88.388338,88.38835 7.07107,7.07106 c 0.97934,0.97935 0.97934,2.55619 0,3.53554 l -7.07107,7.07107 c -0.97934,0.97934 -2.55619,0.97934 -3.53553,0 l -7.07107,-7.07107 c -0.97934,-0.97935 -0.97934,-2.55619 0,-3.53554 l 7.07107,-7.07106 c 0.97934,-0.97935 2.55619,-0.97935 3.53553,0 z m -106.066008,-70.71068 7.071068,7.07107 c 0.979343,0.97934 0.979343,2.55619 -3.5e-5,3.53556 l -7.071068,7.07107 c -0.979343,0.97935 -2.556191,0.97935 -3.535534,0 L 4.5801347,826.2066 c -0.979343,-0.97934 -0.979343,-2.55619 0,-3.53553 L 11.651203,815.6 c 0.979378,-0.97938 2.556226,-0.97938 3.535569,-3e-5 z m 88.388338,88.38835 7.07107,7.07106 c 0.97935,0.97935 0.97935,2.55619 -3e-5,3.53557 l -7.07107,7.07106 c -0.97934,0.9794 -2.55619,0.9794 -3.53553,0 l -7.071065,-7.07106 c -0.97935,-0.97934 -0.97935,-2.55619 0,-3.53553 l 7.071065,-7.07107 c 0.97937,-0.97938 2.55622,-0.97938 3.53556,-3e-5 z m -84.852839,-56.56851 60.104074,60.10407 c 2.93803,2.93803 2.93803,7.66858 0,10.60663 l -60.104074,60.1041 c -2.938029,2.938 -7.668573,2.938 -10.6066023,0 l -60.1040767,-60.1041 c -2.938028,-2.93805 -2.938028,-7.6686 0,-10.60663 L 8.1156687,847.41981 c 2.9380293,-2.93803 7.6685733,-2.93803 10.6066023,0 z m -21.2132043,-14.14214 7.071068,7.07107 c 0.979343,0.97934 0.979343,2.55619 0,3.53553 l -7.071068,7.07107 c -0.979343,0.97934 -2.556191,0.97934 -3.535534,0 l -7.0710677,-7.07107 c -0.979342,-0.97934 -0.979342,-2.55619 0,-3.53553 l 7.0710677,-7.07107 c 0.979343,-0.97934 2.556191,-0.97934 3.535534,0 z m 88.3883483,88.38834 7.07107,7.0711 c 0.97934,0.9793 0.97934,2.5562 0,3.5355 l -7.07107,7.0711 c -0.97934,0.9793 -2.55619,0.9793 -3.53553,0 l -7.07107,-7.0711 c -0.97934,-0.9793 -0.97934,-2.5562 0,-3.5355 l 7.07107,-7.0711 c 0.97934,-0.9793 2.55619,-0.9793 3.53553,0 z m -106.066017,-70.71067 7.071067,7.07107 c 0.979343,0.97934 0.979343,2.55619 0,3.53553 l -7.071067,7.07107 c -0.979343,0.97934 -2.556191,0.97934 -3.535534,0 l -7.071068,-7.07107 c -0.979343,-0.97934 -0.979343,-2.55619 0,-3.53553 l 7.071068,-7.07107 c 0.979343,-0.97934 2.556191,-0.97934 3.535534,0 z m 88.388347,88.38837 7.07107,7.071 c 0.97934,0.9794 0.97934,2.5562 0,3.5356 l -7.07107,7.071 c -0.97934,0.9794 -2.55619,0.9794 -3.53553,0 l -7.07107,-7.071 c -0.97934,-0.9794 -0.97934,-2.5562 0,-3.5356 l 7.07107,-7.071 c 0.97934,-0.9794 2.55619,-0.9794 3.53553,0 z m -106.066017,-70.7107 7.071068,7.07107 c 0.979343,0.97934 0.979343,2.55619 0,3.53553 l -7.071068,7.07107 c -0.979343,0.97934 -2.556191,0.97934 -3.535534,0 l -7.071068,-7.07107 c -0.979343,-0.97934 -0.979343,-2.55619 0,-3.53553 l 7.071068,-7.07107 c 0.979343,-0.97934 2.556191,-0.97934 3.535534,0 z m 88.388347,88.3883 7.07107,7.0711 c 0.97934,0.9794 0.97934,2.5562 0,3.5356 l -7.07107,7.071 c -0.97934,0.9794 -2.55619,0.9794 -3.53553,0 l -7.071071,-7.071 c -0.979343,-0.9794 -0.979343,-2.5562 0,-3.5356 l 7.071071,-7.0711 c 0.97934,-0.9793 2.55619,-0.9793 3.53553,0 z m -106.066017,-70.71063 7.071068,7.07107 c 0.979343,0.97934 0.979343,2.55619 0,3.53553 l -7.071068,7.07107 c -0.979343,0.97934 -2.556191,0.97934 -3.535534,0 l -7.071067,-7.07107 c -0.979343,-0.97934 -0.979343,-2.55619 0,-3.53553 l 7.071067,-7.07107 c 0.979343,-0.97934 2.556191,-0.97934 3.535534,0 z m 88.388348,88.38833 7.071068,7.0711 c 0.979343,0.9793 0.979343,2.5562 0,3.5355 l -7.071068,7.0711 c -0.979343,0.9793 -2.556191,0.9793 -3.535534,0 l -7.071067,-7.0711 c -0.979343,-0.9793 -0.979343,-2.5562 0,-3.5355 l 7.071067,-7.0711 c 0.979343,-0.9793 2.556191,-0.9793 3.535534,0 z m -106.066017,-70.71066 7.071068,7.07107 c 0.979343,0.97934 0.979343,2.55619 0,3.53553 l -7.071068,7.07106 c -0.979343,0.9794 -2.556191,0.9794 -3.535534,0 l -7.071068,-7.07106 c -0.979343,-0.97934 -0.979343,-2.55619 0,-3.53553 l 7.071068,-7.07107 c 0.979343,-0.97934 2.556191,-0.97934 3.535534,0 z m 88.388348,88.38836 7.071068,7.0711 c 0.979342,0.97929 0.979342,2.55609 0,3.53549 l -7.071068,7.0711 c -0.979343,0.9793 -2.556191,0.9793 -3.535534,0 l -7.0710683,-7.0711 c -0.979343,-0.9794 -0.979343,-2.5562 0,-3.53549 l 7.0710683,-7.0711 c 0.979343,-0.9794 2.556191,-0.9794 3.535534,0 z m -106.066017,-70.7107 7.071067,7.0711 c 0.979343,0.9793 0.979343,2.5562 0,3.5355 l -7.071067,7.0711 c -0.979343,0.9793 -2.556191,0.9793 -3.535534,0 l -7.071066,-7.0711 c -0.97935,-0.9793 -0.97935,-2.5562 0,-3.5355 l 7.071066,-7.0711 c 0.979343,-0.9793 2.556191,-0.9793 3.535534,0 z m 88.3883467,88.38839 7.071068,7.071 c 0.979343,0.9794 0.979343,2.5562 0,3.5356 l -7.071068,7.071 c -0.979343,0.9794 -2.556191,0.9794 -3.535534,0 l -7.0710677,-7.071 c -0.979342,-0.9794 -0.979342,-2.5562 0,-3.5356 l 7.0710677,-7.071 c 0.979343,-0.9794 2.556191,-0.9794 3.535534,0 z m -106.0660167,-70.71069 7.07107,7.071 c 0.97934,0.9794 0.97934,2.5562 0,3.5356 l -7.07107,7.071 c -0.97934,0.9794 -2.55619,0.9794 -3.53553,0 l -7.07107,-7.071 c -0.97935,-0.9794 -0.97935,-2.5562 0,-3.5356 l 7.07107,-7.071 c 0.97934,-0.9794 2.55619,-0.9794 3.53553,0 z m 88.388348,88.38829 7.071067,7.0711 c 0.979343,0.9793 0.979343,2.5562 0,3.5355 l -7.071067,7.0711 c -0.979343,0.9793 -2.556191,0.9793 -3.535534,0 l -7.071068,-7.0711 c -0.979343,-0.9793 -0.979343,-2.5562 0,-3.5355 l 7.071068,-7.0711 c 0.979343,-0.9793 2.556191,-0.9793 3.535534,0 z"
       id="rect2985"
       inkscape:connector-curvature="0" />
    <path
       inkscape:connector-curvature="0"
       id="path3003"
       d="m 225.55125,594.62889 -176.776695,176.77669 17.67767,17.67767 30.05204,-30.05204 c 2.93803,-2.93803 7.668565,-2.93803 10.606595,0 l 60.10408,60.10408 c 2.93803,2.93803 2.93803,7.66857 0,10.6066 l -30.05204,30.05204 17.67767,17.67767 176.77669,-176.7767 -17.67767,-17.67767 -30.05203,30.05204 c -2.93803,2.93803 -7.66858,2.93803 -10.60661,0 L 213.17688,652.9652 c -2.93803,-2.93803 -2.93803,-7.66858 0,-10.60661 l 30.05204,-30.05203 -17.67767,-17.67767 z m 1.76776,8.83883 7.07107,7.07107 c 0.97934,0.97934 0.97934,2.55619 0,3.53553 l -7.07107,7.07107 c -0.97934,0.97934 -2.55619,0.97934 -3.53553,0 l -7.07107,-7.07107 c -0.97934,-0.97934 -0.97934,-2.55619 0,-3.53553 l 7.07107,-7.07107 c 0.97934,-0.97934 2.55619,-0.97934 3.53553,0 z m 88.38835,88.38835 7.07107,7.07107 c 0.97934,0.97934 0.97934,2.55619 0,3.53553 l -7.07107,7.07107 c -0.97934,0.97934 -2.55619,0.97934 -3.53553,0 l -7.07107,-7.07107 c -0.97934,-0.97934 -0.97934,-2.55619 0,-3.53553 l 7.07107,-7.07107 c 0.97934,-0.97934 2.55619,-0.97934 3.53553,0 z m -106.06602,-70.71068 7.07107,7.07107 c 0.97934,0.97934 0.97934,2.55619 0,3.53553 l -7.07107,7.07107 c -0.97934,0.97934 -2.55619,0.97934 -3.53553,0 l -7.07107,-7.07107 c -0.97934,-0.97934 -0.97934,-2.55619 0,-3.53553 l 7.07107,-7.07107 c 0.97934,-0.97934 2.55619,-0.97934 3.53553,0 z m 88.38835,88.38835 7.07107,7.07107 c 0.97934,0.97934 0.97934,2.55619 0,3.53553 l -7.07107,7.07107 c -0.97934,0.97934 -2.55619,0.97934 -3.53553,0 l -7.07107,-7.07107 c -0.97934,-0.97934 -0.97934,-2.55619 0,-3.53553 l 7.07107,-7.07107 c 0.97934,-0.97934 2.55619,-0.97934 3.53553,0 z m -106.06602,-70.71068 7.07107,7.07107 c 0.97935,0.97934 0.97935,2.55619 0,3.53553 l -7.07107,7.07107 c -0.97934,0.97934 -2.55619,0.97934 -3.53553,0 l -7.07107,-7.07107 c -0.97934,-0.97934 -0.97934,-2.55619 0,-3.53553 l 7.07107,-7.07107 c 0.97934,-0.97934 2.55619,-0.97934 3.53553,0 z m 88.38835,88.38835 7.07107,7.07107 c 0.97934,0.97934 0.97934,2.55619 0,3.53553 l -7.07107,7.07107 c -0.97934,0.97934 -2.55619,0.97934 -3.53553,0 l -7.07107,-7.07107 c -0.97934,-0.97934 -0.97934,-2.55619 0,-3.53553 l 7.07107,-7.07107 c 0.97934,-0.97935 2.55619,-0.97935 3.53553,0 z m -84.85281,-56.56854 60.10407,60.10407 c 2.93803,2.93803 2.93803,7.66857 0,10.6066 l -60.10407,60.10408 c -2.93803,2.93803 -7.66857,2.93803 -10.6066,0 l -60.10408,-60.10408 c -2.93803,-2.93803 -2.93803,-7.66857 0,-10.6066 l 60.10408,-60.10407 c 2.93803,-2.93803 7.66857,-2.93803 10.6066,0 z m -21.21321,-14.14214 7.07107,7.07107 c 0.97935,0.97934 0.97935,2.55619 0,3.53553 l -7.07107,7.07107 c -0.97934,0.97934 -2.55619,0.97934 -3.53553,0 l -7.07107,-7.07107 c -0.97934,-0.97934 -0.97934,-2.55619 0,-3.53553 l 7.07107,-7.07107 c 0.97934,-0.97934 2.55619,-0.97934 3.53553,0 z m 88.38835,88.38835 7.07107,7.07107 c 0.97934,0.97934 0.97934,2.55619 0,3.53553 l -7.07107,7.07107 c -0.97934,0.97934 -2.55619,0.97934 -3.53553,0 l -7.07107,-7.07107 c -0.97934,-0.97934 -0.97934,-2.55619 0,-3.53553 l 7.07107,-7.07107 c 0.97934,-0.97935 2.55619,-0.97935 3.53553,0 z m -106.06601,-70.71068 7.07106,7.07107 c 0.97935,0.97934 0.97935,2.55619 0,3.53553 l -7.07106,7.07107 c -0.97935,0.97934 -2.5562,0.97934 -3.53554,0 l -7.07107,-7.07107 c -0.97934,-0.97934 -0.97934,-2.55619 0,-3.53553 l 7.07107,-7.07107 c 0.97934,-0.97934 2.55619,-0.97934 3.53554,0 z m 88.38834,88.38835 7.07107,7.07106 c 0.97934,0.97935 0.97934,2.5562 0,3.53554 l -7.07107,7.07107 c -0.97934,0.97934 -2.55619,0.97934 -3.53553,0 l -7.07107,-7.07107 c -0.97934,-0.97934 -0.97934,-2.55619 0,-3.53554 l 7.07107,-7.07106 c 0.97934,-0.97935 2.55619,-0.97935 3.53553,0 z m -106.06601,-70.71068 7.07106,7.07107 c 0.97935,0.97934 0.97935,2.55619 0,3.53553 l -7.07106,7.07107 c -0.97935,0.97934 -2.5562,0.97934 -3.53554,0 l -7.07107,-7.07107 c -0.97934,-0.97934 -0.97934,-2.55619 0,-3.53553 l 7.07107,-7.07107 c 0.97934,-0.97934 2.55619,-0.97934 3.53554,0 z m 88.38834,88.38835 7.07107,7.07106 c 0.97934,0.97935 0.97934,2.5562 0,3.53554 l -7.07107,7.07107 c -0.97934,0.97934 -2.55619,0.97934 -3.53553,0 l -7.07107,-7.07107 c -0.97934,-0.97934 -0.97934,-2.55619 0,-3.53554 l 7.07107,-7.07106 c 0.97934,-0.97935 2.55619,-0.97935 3.53553,0 z M 121.253,709.53374 l 7.07106,7.07107 c 0.97935,0.97934 0.97935,2.55619 0,3.53553 l -7.07106,7.07107 c -0.97935,0.97934 -2.55619,0.97934 -3.53554,0 l -7.07107,-7.07107 c -0.97934,-0.97934 -0.97934,-2.55619 0,-3.53553 l 7.07107,-7.07107 c 0.97935,-0.97934 2.55619,-0.97934 3.53554,0 z m 88.38834,88.38835 7.07107,7.07106 c 0.97934,0.97935 0.97934,2.55619 0,3.53554 l -7.07107,7.07107 c -0.97934,0.97934 -2.55619,0.97934 -3.53553,0 l -7.07107,-7.07107 c -0.97934,-0.97935 -0.97934,-2.55619 0,-3.53554 l 7.07107,-7.07106 c 0.97934,-0.97935 2.55619,-0.97935 3.53553,0 z m -106.06601,-70.71068 7.07106,7.07107 c 0.97935,0.97934 0.97935,2.55619 0,3.53553 l -7.07106,7.07107 c -0.97935,0.97934 -2.55619,0.97934 -3.53554,0 l -7.071055,-7.07107 c -0.97935,-0.97934 -0.97935,-2.55619 0,-3.53553 l 7.071055,-7.07107 c 0.97935,-0.97935 2.55619,-0.97935 3.53554,0 z m 88.38834,88.38835 7.07107,7.07106 c 0.97935,0.97935 0.97935,2.55619 0,3.53554 l -7.07107,7.07106 c -0.97934,0.97935 -2.55619,0.97935 -3.53553,0 l -7.07107,-7.07106 c -0.97934,-0.97935 -0.97934,-2.55619 0,-3.53554 l 7.07107,-7.07106 c 0.97934,-0.97935 2.55619,-0.97935 3.53553,0 z m -106.066005,-70.71068 7.07107,7.07107 c 0.97934,0.97934 0.97934,2.55619 0,3.53553 l -7.07107,7.07107 c -0.97935,0.97934 -2.55619,0.97934 -3.53554,0 l -7.07106,-7.07107 c -0.97935,-0.97934 -0.97935,-2.55619 0,-3.53553 l 7.07106,-7.07107 c 0.97935,-0.97935 2.55619,-0.97935 3.53554,0 z m 88.388335,88.38834 7.07107,7.07107 c 0.97935,0.97935 0.97935,2.55619 0,3.53554 l -7.07107,7.07106 c -0.97934,0.97935 -2.55619,0.97935 -3.53553,0 l -7.07107,-7.07106 c -0.97934,-0.97935 -0.97934,-2.55619 0,-3.53554 l 7.07107,-7.07107 c 0.97934,-0.97934 2.55619,-0.97934 3.53553,0 z m -106.066005,-70.71067 7.07107,7.07106 c 0.97934,0.97935 0.97934,2.5562 0,3.53554 l -7.07107,7.07107 c -0.97935,0.97934 -2.55619,0.97934 -3.53554,0 l -7.07106,-7.07107 c -0.97935,-0.97934 -0.97935,-2.55619 0,-3.53554 l 7.07106,-7.07106 c 0.97935,-0.97935 2.55619,-0.97935 3.53554,0 z m 88.388345,88.38834 7.07106,7.07107 c 0.97935,0.97935 0.97935,2.55619 0,3.53554 l -7.07106,7.07106 c -0.97935,0.97935 -2.5562,0.97935 -3.53554,0 l -7.07107,-7.07106 c -0.97934,-0.97935 -0.97934,-2.55619 0,-3.53554 l 7.07107,-7.07107 c 0.97934,-0.97934 2.55619,-0.97934 3.53554,0 z"
       style="opacity:0.2;fill:#000000;fill-opacity:1;stroke:none" />
    <path
       style="opacity:0.2;fill:#000000;fill-opacity:1;stroke:none"
       d="m 402.32827,417.85186 -176.77669,176.77669 17.67767,17.67767 30.05204,-30.05203 c 2.93803,-2.93803 7.66857,-2.93803 10.6066,0 l 60.10407,60.10407 c 2.93803,2.93803 2.93803,7.66857 0,10.6066 l -30.05203,30.05204 17.67767,17.67767 176.77669,-176.77669 -17.67767,-17.67767 -30.05204,30.05203 c -2.93802,2.93803 -7.66857,2.93803 -10.6066,0 l -60.10407,-60.10407 c -2.93803,-2.93803 -2.93803,-7.66858 0,-10.6066 l 30.05203,-30.05204 -17.67767,-17.67767 z m 1.76777,8.83883 7.07107,7.07107 c 0.97934,0.97934 0.97934,2.55619 0,3.53554 l -7.07107,7.07106 c -0.97934,0.97935 -2.55619,0.97935 -3.53553,0 l -7.07107,-7.07106 c -0.97934,-0.97935 -0.97934,-2.5562 0,-3.53554 l 7.07107,-7.07107 c 0.97934,-0.97934 2.55619,-0.97934 3.53553,0 z m 88.38835,88.38835 7.07107,7.07107 c 0.97934,0.97934 0.97934,2.55619 0,3.53553 l -7.07107,7.07107 c -0.97934,0.97934 -2.55619,0.97934 -3.53554,0 l -7.07106,-7.07107 c -0.97935,-0.97934 -0.97935,-2.55619 0,-3.53553 l 7.07106,-7.07107 c 0.97935,-0.97934 2.5562,-0.97934 3.53554,0 z m -106.06602,-70.71068 7.07107,7.07107 c 0.97934,0.97934 0.97934,2.55619 0,3.53553 l -7.07107,7.07107 c -0.97934,0.97935 -2.55619,0.97935 -3.53553,0 l -7.07107,-7.07107 c -0.97934,-0.97934 -0.97934,-2.55619 0,-3.53553 l 7.07107,-7.07107 c 0.97934,-0.97934 2.55619,-0.97934 3.53553,0 z m 88.38835,88.38835 7.07107,7.07107 c 0.97934,0.97934 0.97934,2.55619 0,3.53553 l -7.07107,7.07107 c -0.97934,0.97934 -2.55619,0.97934 -3.53553,0 l -7.07107,-7.07107 c -0.97935,-0.97934 -0.97935,-2.55619 0,-3.53553 l 7.07107,-7.07107 c 0.97934,-0.97934 2.55619,-0.97934 3.53553,0 z m -106.06602,-70.71068 7.07107,7.07107 c 0.97934,0.97934 0.97934,2.55619 0,3.53553 l -7.07107,7.07107 c -0.97934,0.97934 -2.55619,0.97934 -3.53553,0 l -7.07107,-7.07107 c -0.97934,-0.97934 -0.97934,-2.55619 0,-3.53553 l 7.07107,-7.07107 c 0.97934,-0.97934 2.55619,-0.97934 3.53553,0 z m 88.38835,88.38835 7.07107,7.07107 c 0.97934,0.97934 0.97934,2.55619 0,3.53553 l -7.07107,7.07107 c -0.97934,0.97934 -2.55619,0.97934 -3.53553,0 l -7.07107,-7.07107 c -0.97934,-0.97934 -0.97934,-2.55619 0,-3.53553 l 7.07107,-7.07107 c 0.97934,-0.97934 2.55619,-0.97934 3.53553,0 z m -84.85281,-56.56854 60.10407,60.10407 c 2.93803,2.93803 2.93803,7.66858 0,10.60661 l -60.10407,60.10407 c -2.93803,2.93803 -7.66858,2.93803 -10.60661,0 l -60.10407,-60.10407 c -2.93803,-2.93803 -2.93803,-7.66858 0,-10.60661 l 60.10407,-60.10407 c 2.93803,-2.93803 7.66858,-2.93803 10.60661,0 z m -21.21321,-14.14214 7.07107,7.07107 c 0.97934,0.97934 0.97934,2.55619 0,3.53553 l -7.07107,7.07107 c -0.97934,0.97934 -2.55619,0.97934 -3.53553,0 l -7.07107,-7.07107 c -0.97934,-0.97934 -0.97934,-2.55619 0,-3.53553 l 7.07107,-7.07107 c 0.97934,-0.97934 2.55619,-0.97934 3.53553,0 z m 88.38835,88.38835 7.07107,7.07107 c 0.97934,0.97934 0.97934,2.55619 0,3.53553 l -7.07107,7.07107 c -0.97934,0.97934 -2.55619,0.97934 -3.53553,0 l -7.07107,-7.07107 c -0.97934,-0.97934 -0.97934,-2.55619 0,-3.53553 l 7.07107,-7.07107 c 0.97934,-0.97934 2.55619,-0.97934 3.53553,0 z m -106.06602,-70.71068 7.07107,7.07107 c 0.97934,0.97934 0.97934,2.55619 0,3.53553 l -7.07107,7.07107 c -0.97934,0.97934 -2.55619,0.97934 -3.53553,0 l -7.07107,-7.07107 c -0.97934,-0.97934 -0.97934,-2.55619 0,-3.53553 l 7.07107,-7.07107 c 0.97934,-0.97934 2.55619,-0.97934 3.53553,0 z m 88.38835,88.38835 7.07107,7.07107 c 0.97934,0.97934 0.97934,2.55619 0,3.53553 l -7.07107,7.07107 c -0.97934,0.97934 -2.55619,0.97934 -3.53553,0 l -7.07107,-7.07107 c -0.97934,-0.97934 -0.97934,-2.55619 0,-3.53553 l 7.07107,-7.07107 c 0.97934,-0.97934 2.55619,-0.97934 3.53553,0 z m -106.06602,-70.71068 7.07107,7.07107 c 0.97934,0.97934 0.97934,2.55619 0,3.53553 l -7.07107,7.07107 c -0.97934,0.97934 -2.55619,0.97934 -3.53553,0 l -7.07107,-7.07107 c -0.97934,-0.97934 -0.97934,-2.55619 0,-3.53553 l 7.07107,-7.07107 c 0.97934,-0.97934 2.55619,-0.97934 3.53553,0 z m 88.38835,88.38835 7.07107,7.07107 c 0.97934,0.97934 0.97934,2.55619 0,3.53553 l -7.07107,7.07107 c -0.97934,0.97934 -2.55619,0.97934 -3.53553,0 l -7.07107,-7.07107 c -0.97934,-0.97934 -0.97934,-2.55619 0,-3.53553 l 7.07107,-7.07107 c 0.97934,-0.97934 2.55619,-0.97934 3.53553,0 z m -106.06602,-70.71068 7.07107,7.07107 c 0.97934,0.97934 0.97934,2.55619 0,3.53553 l -7.07107,7.07107 c -0.97934,0.97934 -2.55619,0.97934 -3.53553,0 l -7.07107,-7.07107 c -0.97934,-0.97934 -0.97934,-2.55619 0,-3.53553 l 7.07107,-7.07107 c 0.97934,-0.97934 2.55619,-0.97934 3.53553,0 z m 88.38835,88.38835 7.07107,7.07107 c 0.97934,0.97934 0.97934,2.55619 0,3.53553 l -7.07107,7.07107 c -0.97934,0.97934 -2.55619,0.97934 -3.53553,0 l -7.07107,-7.07107 c -0.97934,-0.97934 -0.97934,-2.55619 0,-3.53553 l 7.07107,-7.07107 c 0.97934,-0.97934 2.55619,-0.97934 3.53553,0 z m -106.06602,-70.71068 7.07107,7.07107 c 0.97935,0.97934 0.97935,2.55619 0,3.53553 l -7.07107,7.07107 c -0.97934,0.97934 -2.55619,0.97934 -3.53553,0 l -7.07107,-7.07107 c -0.97934,-0.97934 -0.97934,-2.55619 0,-3.53553 l 7.07107,-7.07107 c 0.97934,-0.97934 2.55619,-0.97934 3.53553,0 z m 88.38835,88.38835 7.07107,7.07107 c 0.97934,0.97934 0.97934,2.55619 0,3.53553 l -7.07107,7.07107 c -0.97934,0.97934 -2.55619,0.97934 -3.53553,0 l -7.07107,-7.07107 c -0.97934,-0.97934 -0.97934,-2.55619 0,-3.53553 l 7.07107,-7.07107 c 0.97934,-0.97935 2.55619,-0.97935 3.53553,0 z m -106.06602,-70.71068 7.07107,7.07107 c 0.97935,0.97934 0.97935,2.55619 0,3.53553 l -7.07107,7.07107 c -0.97934,0.97934 -2.55619,0.97934 -3.53553,0 l -7.07107,-7.07107 c -0.97934,-0.97934 -0.97934,-2.55619 0,-3.53553 l 7.07107,-7.07107 c 0.97934,-0.97934 2.55619,-0.97934 3.53553,0 z m 88.38835,88.38835 7.07107,7.07107 c 0.97934,0.97934 0.97934,2.55619 0,3.53553 l -7.07107,7.07107 c -0.97934,0.97934 -2.55619,0.97934 -3.53553,0 l -7.07107,-7.07107 c -0.97934,-0.97934 -0.97934,-2.55619 0,-3.53553 l 7.07107,-7.07107 c 0.97934,-0.97935 2.55619,-0.97935 3.53553,0 z m -106.06601,-70.71068 7.07106,7.07107 c 0.97935,0.97934 0.97935,2.55619 0,3.53553 l -7.07106,7.07107 c -0.97935,0.97934 -2.5562,0.97934 -3.53554,0 l -7.07107,-7.07107 c -0.97934,-0.97934 -0.97934,-2.55619 0,-3.53553 l 7.07107,-7.07107 c 0.97934,-0.97934 2.55619,-0.97934 3.53554,0 z m 88.38834,88.38835 7.07107,7.07106 c 0.97934,0.97935 0.97934,2.5562 0,3.53554 l -7.07107,7.07107 c -0.97934,0.97934 -2.55619,0.97934 -3.53553,0 l -7.07107,-7.07107 c -0.97934,-0.97934 -0.97934,-2.55619 0,-3.53554 l 7.07107,-7.07106 c 0.97934,-0.97935 2.55619,-0.97935 3.53553,0 z"
       id="path3005"
       inkscape:connector-curvature="0" />
  </g>
</svg>
