<?xml version="1.0" encoding="UTF-8" standalone="no"?>
<svg
   xmlns:dc="http://purl.org/dc/elements/1.1/"
   xmlns:cc="http://creativecommons.org/ns#"
   xmlns:rdf="http://www.w3.org/1999/02/22-rdf-syntax-ns#"
   xmlns:svg="http://www.w3.org/2000/svg"
   xmlns="http://www.w3.org/2000/svg"
   version="1.1"
   id="svg4538"
   height="400"
   width="400">
  <defs
     id="defs4540" />
  <metadata
     id="metadata4543">
    <rdf:RDF>
      <cc:Work
         rdf:about="">
        <dc:format>image/svg+xml</dc:format>
        <dc:type
           rdf:resource="http://purl.org/dc/dcmitype/StillImage" />
        <dc:title></dc:title>
      </cc:Work>
    </rdf:RDF>
  </metadata>
  <g
     transform="translate(0,-652.36218)"
     id="layer1">
    <g
       style="opacity:0.2;fill:#000000;fill-opacity:1"
       id="g354"
       transform="matrix(2.2296315,1.4978346,-1.4978346,2.2296315,-153.44533,-84.636113)">
      <path
         id="path356"
         d="m 295.466,194.224 c 0,-2.119 0,-10.743 0,-10.743 0,-2.401 -1.947,-4.349 -4.349,-4.349 h -15.299 c -2.402,0 -4.349,1.948 -4.349,4.349 0,0 0,8.624 0,10.743 0,2.118 -4.604,3.317 -4.604,3.317 v 8.457 c 0,2.403 1.948,4.349 4.35,4.349 h 12.252 12.253 c 2.402,0 4.35,-1.945 4.35,-4.349 v -8.457 c 0,0.001 -4.604,-1.199 -4.604,-3.317 z"
         style="fill:#000000;fill-opacity:1" />
      <path
         id="path358"
         d="m 246.605,199.169 c -0.811,-1.958 -4.111,-9.924 -4.111,-9.924 -0.919,-2.22 -3.463,-3.273 -5.683,-2.354 l -14.133,5.854 c -2.219,0.919 -3.274,3.464 -2.354,5.684 0,0 3.3,7.965 4.111,9.925 0.811,1.956 -2.983,4.826 -2.983,4.826 l 3.237,7.813 c 0.919,2.221 3.464,3.274 5.683,2.355 l 11.32,-4.688 11.32,-4.689 c 2.219,-0.92 3.273,-3.464 2.354,-5.683 l -3.236,-7.814 c -0.003,-10e-4 -4.714,0.653 -5.525,-1.305 z"
         style="fill:#000000;fill-opacity:1" />
      <path
         id="path360"
         d="m 203.355,222.439 c -1.498,-1.501 -7.595,-7.596 -7.595,-7.596 -1.699,-1.699 -4.453,-1.699 -6.151,0 l -10.818,10.815 c -1.698,1.699 -1.699,4.453 0,6.152 0,0 6.098,6.097 7.596,7.596 1.498,1.499 -0.91,5.601 -0.91,5.601 l 5.981,5.981 c 1.698,1.698 4.453,1.698 6.15,0 l 8.664,-8.664 8.664,-8.664 c 1.7,-1.698 1.699,-4.454 0.001,-6.153 l -5.981,-5.979 c 0.001,0.001 -4.102,2.408 -5.601,0.911 z"
         style="fill:#000000;fill-opacity:1" />
      <path
         id="path362"
         d="m 172.303,260.485 c -1.958,-0.813 -9.925,-4.11 -9.925,-4.11 -2.219,-0.919 -4.763,0.137 -5.683,2.354 l -5.855,14.135 c -0.919,2.217 0.135,4.764 2.354,5.683 0,0 7.966,3.299 9.924,4.11 1.958,0.812 1.303,5.522 1.303,5.522 l 7.814,3.236 c 2.219,0.92 4.764,-0.135 5.683,-2.354 l 4.689,-11.318 4.688,-11.321 c 0.919,-2.219 -0.135,-4.764 -2.354,-5.683 l -7.813,-3.237 c 0.002,-0.001 -2.868,3.794 -4.825,2.983 z"
         style="fill:#000000;fill-opacity:1" />
      <path
         id="path364"
         d="m 158.174,307.52 c -2.119,0 -10.742,0 -10.742,0 -2.402,0.001 -4.349,1.947 -4.349,4.351 l -0.001,15.298 c 0.001,2.401 1.948,4.349 4.351,4.349 0,0 8.622,0 10.742,0 2.118,0 3.317,4.604 3.317,4.604 l 8.458,-0.001 c 2.401,0.001 4.349,-1.946 4.349,-4.35 v -12.252 -12.254 c 0,-2.401 -1.948,-4.349 -4.35,-4.349 h -8.458 c 10e-4,10e-4 -1.198,4.605 -3.317,4.604 z"
         style="fill:#000000;fill-opacity:1" />
      <path
         id="path366"
         d="m 163.12,356.381 c -1.958,0.81 -9.924,4.111 -9.924,4.111 -2.219,0.92 -3.272,3.462 -2.354,5.683 l 5.854,14.135 c 0.919,2.218 3.465,3.271 5.684,2.354 0,0 7.966,-3.302 9.925,-4.111 1.957,-0.811 4.826,2.982 4.826,2.982 l 7.814,-3.236 c 2.219,-0.918 3.273,-3.463 2.354,-5.683 l -4.688,-11.319 -4.689,-11.319 c -0.92,-2.221 -3.464,-3.274 -5.684,-2.355 l -7.813,3.235 c -0.002,-10e-4 0.653,4.713 -1.305,5.523 z"
         style="fill:#000000;fill-opacity:1" />
      <path
         id="path368"
         d="m 186.388,399.63 c -1.5,1.499 -7.596,7.596 -7.596,7.596 -1.698,1.698 -1.698,4.451 0,6.151 l 10.817,10.818 c 1.698,1.698 4.453,1.698 6.151,0 0,0 6.097,-6.099 7.596,-7.597 1.498,-1.499 5.601,0.911 5.601,0.911 l 5.979,-5.983 c 1.699,-1.698 1.699,-4.451 0,-6.149 l -8.663,-8.664 -8.664,-8.663 c -1.7,-1.699 -4.454,-1.699 -6.152,0 l -5.981,5.979 c 0.002,0 2.411,4.103 0.912,5.601 z"
         style="fill:#000000;fill-opacity:1" />
      <path
         id="path370"
         d="m 224.435,430.683 c -0.812,1.958 -4.11,9.926 -4.11,9.926 -0.918,2.217 0.135,4.762 2.354,5.683 l 14.133,5.854 c 2.219,0.92 4.764,-0.136 5.684,-2.354 0,0 3.299,-7.967 4.111,-9.925 0.81,-1.958 5.522,-1.303 5.522,-1.303 l 3.235,-7.814 c 0.92,-2.219 -0.135,-4.764 -2.354,-5.683 l -11.319,-4.688 -11.32,-4.689 c -2.22,-0.918 -4.764,0.135 -5.684,2.354 l -3.237,7.814 c 0.002,-10e-4 3.798,2.869 2.985,4.825 z"
         style="fill:#000000;fill-opacity:1" />
      <path
         id="path372"
         d="m 271.47,444.813 c 0,2.12 0,10.742 0,10.742 10e-4,2.401 1.948,4.348 4.351,4.35 h 15.298 c 2.401,0 4.349,-1.948 4.35,-4.351 0,0 -10e-4,-8.621 0,-10.743 -10e-4,-2.118 4.603,-3.317 4.603,-3.317 l -10e-4,-8.457 c 10e-4,-2.401 -1.948,-4.349 -4.349,-4.349 H 283.47 271.217 c -2.403,0 -4.351,1.947 -4.351,4.349 v 8.457 c 0,0 4.606,1.199 4.604,3.319 z"
         style="fill:#000000;fill-opacity:1" />
      <path
         id="path374"
         d="m 320.332,439.867 c 0.811,1.958 4.111,9.925 4.111,9.925 0.919,2.217 3.463,3.271 5.684,2.354 l 14.134,-5.854 c 2.218,-0.921 3.271,-3.466 2.354,-5.687 0,0 -3.3,-7.964 -4.111,-9.922 -0.811,-1.958 2.983,-4.826 2.983,-4.826 l -3.237,-7.814 c -0.918,-2.221 -3.463,-3.271 -5.683,-2.354 l -11.319,4.688 -11.319,4.688 c -2.22,0.921 -3.275,3.466 -2.355,5.685 l 3.236,7.813 c -0.002,-10e-4 4.712,-0.654 5.522,1.304 z"
         style="fill:#000000;fill-opacity:1" />
      <path
         id="path376"
         d="m 363.581,416.599 c 1.499,1.498 7.596,7.597 7.596,7.597 1.7,1.695 4.451,1.695 6.153,0 l 10.816,-10.82 c 1.698,-1.698 1.698,-4.452 -0.001,-6.151 0,0 -6.096,-6.097 -7.596,-7.594 -1.499,-1.5 0.909,-5.602 0.909,-5.602 l -5.98,-5.979 c -1.698,-1.702 -4.451,-1.699 -6.15,-0.002 l -8.664,8.663 -8.664,8.664 c -1.698,1.7 -1.698,4.453 -10e-4,6.151 l 5.98,5.979 c 0,10e-4 4.104,-2.405 5.602,-0.906 z"
         style="fill:#000000;fill-opacity:1" />
      <path
         id="path378"
         d="m 394.633,378.55 c 1.959,0.812 9.925,4.112 9.925,4.112 2.219,0.917 4.763,-0.137 5.684,-2.355 l 5.854,-14.133 c 0.918,-2.22 -0.136,-4.764 -2.354,-5.685 0,0 -7.967,-3.299 -9.925,-4.11 -1.958,-0.811 -1.304,-5.522 -1.304,-5.522 l -7.814,-3.235 c -2.219,-0.921 -4.762,0.135 -5.682,2.353 l -4.689,11.32 -4.688,11.321 c -0.918,2.22 0.135,4.763 2.354,5.683 l 7.813,3.236 c -0.001,0 2.87,-3.796 4.826,-2.985 z"
         style="fill:#000000;fill-opacity:1" />
      <path
         id="path380"
         d="m 408.762,331.517 c 2.12,0 10.743,0 10.743,0 2.4,-0.002 4.348,-1.949 4.35,-4.353 v -15.298 c -0.002,-2.401 -1.949,-4.349 -4.351,-4.349 0,0 -8.621,0 -10.742,0 -2.119,0 -3.316,-4.604 -3.316,-4.604 l -8.459,0.002 c -2.401,-0.002 -4.349,1.946 -4.35,4.349 v 12.252 l 10e-4,12.253 c 0,2.402 1.947,4.351 4.349,4.351 l 8.458,-0.002 c 0,0.001 1.2,-4.603 3.317,-4.601 z"
         style="fill:#000000;fill-opacity:1" />
      <path
         id="path382"
         d="m 403.817,282.654 c 1.958,-0.81 9.925,-4.11 9.925,-4.11 2.218,-0.919 3.271,-3.464 2.354,-5.684 l -5.855,-14.134 c -0.92,-2.219 -3.465,-3.272 -5.684,-2.355 0,0 -7.965,3.302 -9.925,4.114 -1.957,0.812 -4.826,-2.984 -4.826,-2.984 l -7.813,3.238 c -2.22,0.918 -3.272,3.462 -2.354,5.681 l 4.688,11.321 4.69,11.317 c 0.919,2.221 3.463,3.274 5.682,2.356 l 7.814,-3.236 c 0,0 -0.653,-4.714 1.304,-5.524 z"
         style="fill:#000000;fill-opacity:1" />
      <path
         id="path384"
         d="m 380.548,239.405 c 1.5,-1.497 7.596,-7.596 7.596,-7.596 1.698,-1.699 1.698,-4.451 10e-4,-6.151 L 377.327,214.84 c -1.699,-1.696 -4.453,-1.696 -6.152,0 0,0 -6.095,6.099 -7.595,7.597 -1.498,1.5 -5.602,-0.907 -5.602,-0.907 l -5.979,5.979 c -1.699,1.699 -1.698,4.453 0,6.152 l 8.663,8.663 8.665,8.662 c 1.698,1.7 4.452,1.7 6.151,0.004 l 5.979,-5.981 c 0.001,-0.002 -2.407,-4.106 -0.909,-5.604 z"
         style="fill:#000000;fill-opacity:1" />
      <path
         id="path386"
         d="m 342.501,208.352 c 0.812,-1.958 4.11,-9.924 4.11,-9.924 0.919,-2.219 -0.136,-4.764 -2.354,-5.685 l -14.136,-5.854 c -2.219,-0.917 -4.764,0.136 -5.683,2.355 0,0 -3.298,7.966 -4.11,9.925 -0.81,1.958 -5.521,1.304 -5.521,1.304 l -3.236,7.814 c -0.921,2.219 0.134,4.763 2.354,5.683 l 11.318,4.688 11.318,4.688 c 2.221,0.92 4.766,-0.133 5.686,-2.354 l 3.235,-7.813 c 0.002,0.001 -3.792,-2.869 -2.981,-4.827 z"
         style="fill:#000000;fill-opacity:1" />
      <circle
         id="circle388"
         r="25.48"
         cy="319.517"
         cx="283.46799"
         style="fill:#000000;fill-opacity:1" />
      <path
         id="path390"
         d="m 406.555,319.517 c 0,67.98 -55.107,123.087 -123.087,123.087 -67.98,0 -123.088,-55.106 -123.088,-123.087 0,-67.979 55.108,-123.086 123.088,-123.086 67.98,0 123.087,55.107 123.087,123.086 z M 283.468,285.158 c -18.977,0 -34.36,15.383 -34.36,34.359 0,18.978 15.383,34.362 34.36,34.362 18.977,0 34.359,-15.385 34.359,-34.362 10e-4,-18.976 -15.382,-34.359 -34.359,-34.359 z m 8.88,-39.184 c 0,-2.708 -2.196,-4.901 -4.904,-4.901 h -7.951 c -2.708,0 -4.904,2.193 -4.904,4.901 v 20.954 c 0,2.708 2.196,4.904 4.904,4.904 h 7.951 c 2.708,0 4.904,-2.196 4.904,-4.904 v -20.954 z"
         style="fill:#000000;fill-opacity:1" />
    </g>
  </g>
</svg>
