<?xml version="1.0" encoding="UTF-8" standalone="no"?>
<svg
   xmlns:dc="http://purl.org/dc/elements/1.1/"
   xmlns:cc="http://creativecommons.org/ns#"
   xmlns:rdf="http://www.w3.org/1999/02/22-rdf-syntax-ns#"
   xmlns:svg="http://www.w3.org/2000/svg"
   xmlns="http://www.w3.org/2000/svg"
   version="1.1"
   id="svg5427"
   height="400"
   width="400">
  <defs
     id="defs5429" />
  <metadata
     id="metadata5432">
    <rdf:RDF>
      <cc:Work
         rdf:about="">
        <dc:format>image/svg+xml</dc:format>
        <dc:type
           rdf:resource="http://purl.org/dc/dcmitype/StillImage" />
        <dc:title></dc:title>
      </cc:Work>
    </rdf:RDF>
  </metadata>
  <g
     transform="translate(0,-652.36218)"
     id="layer1">
    <g
       style="opacity:0.2;fill:#000000;fill-opacity:1"
       id="g868"
       transform="matrix(6.9280966,0,0,6.9280966,-2959.159,-1360.7558)">
      <path
         style="fill:#000000;fill-opacity:1"
         id="path870"
         d="m 526.631,290.6 c 0,23.088 -18.717,41.805 -41.806,41.805 -23.089,0 -41.805,-18.717 -41.805,-41.805 0,-23.089 18.717,-41.806 41.806,-41.806 23.089,0 41.805,18.717 41.805,41.806 z m -41.805,-21.94 c -12.117,0 -21.939,9.823 -21.939,21.94 0,12.117 9.822,21.94 21.939,21.94 12.117,0 21.939,-9.823 21.939,-21.94 0,-12.118 -9.822,-21.94 -21.939,-21.94 z" />
      <path
         style="fill:#000000;fill-opacity:1"
         id="path872"
         d="m 505.655,290.6 c 0,11.503 -9.326,20.829 -20.829,20.829 -11.504,0 -20.829,-9.326 -20.829,-20.829 0,-11.503 9.325,-20.829 20.829,-20.829 11.503,0 20.829,9.326 20.829,20.829 z m -20.829,-6.274 c -3.466,0 -6.274,2.809 -6.274,6.274 0,3.465 2.809,6.274 6.274,6.274 3.465,0 6.274,-2.809 6.274,-6.274 0,-3.466 -2.809,-6.274 -6.274,-6.274 z" />
      <g
         style="fill:#000000;fill-opacity:1"
         id="g874">
        <path
           style="fill:#000000;fill-opacity:1"
           id="path876"
           d="m 489.57,247.807 c -0.373,-2.077 -0.744,-4.154 -1.118,-6.23 -0.172,-0.958 -0.824,-1.972 -1.484,-2.151 -1.682,-0.456 -2.602,-0.456 -4.284,0 -0.66,0.179 -1.313,1.193 -1.484,2.151 -0.373,2.077 -0.745,4.154 -1.118,6.23 -0.151,0.845 -2.114,1.551 -2.114,1.551 -0.344,1.289 -0.516,1.934 -0.859,3.223 -0.244,0.915 0.515,1.657 1.695,1.657 2.008,0 4.016,0 6.022,0 2.008,0 4.016,0 6.023,0 1.181,0 1.939,-0.742 1.695,-1.657 -0.344,-1.289 -0.516,-1.934 -0.859,-3.223 -10e-4,0 -1.964,-0.706 -2.115,-1.551 z" />
      </g>
      <g
         style="fill:#000000;fill-opacity:1"
         id="g878">
        <path
           style="fill:#000000;fill-opacity:1"
           id="path880"
           d="m 474.647,248.765 c -1.06,-1.824 -2.119,-3.649 -3.181,-5.472 -0.489,-0.841 -1.449,-1.571 -2.131,-1.514 -1.736,0.146 -2.601,0.461 -4.025,1.465 -0.56,0.394 -0.825,1.57 -0.659,2.529 0.359,2.079 0.721,4.158 1.08,6.237 0.146,0.846 -1.456,2.18 -1.456,2.18 0.117,1.329 0.176,1.994 0.294,3.323 0.084,0.943 1.052,1.381 2.16,0.977 1.887,-0.687 3.773,-1.373 5.659,-2.06 1.887,-0.687 3.773,-1.374 5.66,-2.06 1.109,-0.404 1.569,-1.361 1.026,-2.137 -0.764,-1.094 -1.146,-1.641 -1.91,-2.734 0.001,0.001 -2.085,0.008 -2.517,-0.734 z" />
      </g>
      <g
         style="fill:#000000;fill-opacity:1"
         id="g882">
        <path
           style="fill:#000000;fill-opacity:1"
           id="path884"
           d="m 460.953,254.77 c -1.62,-1.352 -3.239,-2.704 -4.861,-4.054 -0.747,-0.623 -1.898,-0.981 -2.52,-0.694 -1.582,0.732 -2.286,1.323 -3.282,2.753 -0.391,0.562 -0.238,1.758 0.246,2.602 1.049,1.831 2.1,3.661 3.149,5.492 0.427,0.745 -0.624,2.547 -0.624,2.547 0.565,1.208 0.848,1.813 1.413,3.021 0.401,0.858 1.46,0.938 2.364,0.18 1.538,-1.291 3.076,-2.581 4.614,-3.871 1.537,-1.291 3.075,-2.581 4.613,-3.872 0.904,-0.759 1.009,-1.815 0.233,-2.359 -1.092,-0.766 -1.638,-1.149 -2.73,-1.916 0.001,-10e-4 -1.956,0.72 -2.615,0.171 z" />
      </g>
      <g
         style="fill:#000000;fill-opacity:1"
         id="g886">
        <path
           style="fill:#000000;fill-opacity:1"
           id="path888"
           d="m 450.138,265.095 c -1.985,-0.716 -3.97,-1.433 -5.955,-2.147 -0.915,-0.33 -2.119,-0.272 -2.604,0.209 -1.237,1.229 -1.697,2.025 -2.143,3.71 -0.175,0.662 0.377,1.733 1.121,2.361 1.611,1.362 3.225,2.722 4.837,4.083 0.655,0.554 0.285,2.606 0.285,2.606 0.944,0.942 1.417,1.414 2.361,2.356 0.67,0.669 1.692,0.382 2.283,-0.64 1.004,-1.738 2.007,-3.477 3.011,-5.215 1.004,-1.739 2.008,-3.478 3.012,-5.216 0.591,-1.022 0.327,-2.051 -0.587,-2.297 -1.289,-0.347 -1.933,-0.52 -3.222,-0.867 0.001,0.002 -1.591,1.349 -2.399,1.057 z" />
      </g>
      <g
         style="fill:#000000;fill-opacity:1"
         id="g890">
        <path
           style="fill:#000000;fill-opacity:1"
           id="path892"
           d="m 443.506,278.498 c -2.109,0.006 -4.22,0.011 -6.33,0.019 -0.973,0.003 -2.084,0.469 -2.376,1.088 -0.741,1.577 -0.901,2.483 -0.744,4.219 0.063,0.682 0.947,1.5 1.861,1.835 1.98,0.729 3.961,1.456 5.941,2.184 0.806,0.296 1.16,2.352 1.16,2.352 1.21,0.563 1.815,0.844 3.024,1.406 0.859,0.399 1.722,-0.22 1.927,-1.382 0.349,-1.977 0.697,-3.954 1.046,-5.931 0.349,-1.978 0.697,-3.955 1.045,-5.932 0.206,-1.163 -0.394,-2.04 -1.337,-1.958 -1.329,0.115 -1.994,0.172 -3.323,0.287 0.001,-10e-4 -1.035,1.81 -1.894,1.813 z" />
      </g>
      <g
         style="fill:#000000;fill-opacity:1"
         id="g894">
        <path
           style="fill:#000000;fill-opacity:1"
           id="path896"
           d="m 441.859,293.359 c -1.979,0.728 -3.962,1.454 -5.941,2.183 -0.913,0.335 -1.799,1.154 -1.86,1.835 -0.158,1.736 0.002,2.642 0.743,4.219 0.292,0.62 1.403,1.085 2.376,1.088 2.11,0.007 4.221,0.013 6.33,0.02 0.859,0.002 1.895,1.813 1.895,1.813 1.329,0.115 1.994,0.172 3.323,0.287 0.943,0.082 1.543,-0.795 1.338,-1.958 -0.349,-1.977 -0.697,-3.954 -1.046,-5.931 -0.349,-1.977 -0.697,-3.954 -1.046,-5.931 -0.205,-1.163 -1.067,-1.782 -1.927,-1.382 -1.209,0.563 -1.814,0.844 -3.024,1.406 -10e-4,-10e-4 -0.355,2.055 -1.161,2.351 z" />
      </g>
      <g
         style="fill:#000000;fill-opacity:1"
         id="g898">
        <path
           style="fill:#000000;fill-opacity:1"
           id="path900"
           d="m 445.394,307.888 c -1.612,1.361 -3.226,2.721 -4.837,4.083 -0.743,0.627 -1.296,1.699 -1.121,2.36 0.446,1.686 0.906,2.482 2.143,3.711 0.485,0.482 1.689,0.539 2.604,0.209 1.985,-0.715 3.971,-1.432 5.955,-2.147 0.808,-0.291 2.4,1.057 2.4,1.057 1.288,-0.347 1.933,-0.521 3.221,-0.868 0.915,-0.245 1.178,-1.274 0.587,-2.296 -1.004,-1.739 -2.007,-3.477 -3.011,-5.216 -1.004,-1.738 -2.008,-3.477 -3.012,-5.215 -0.59,-1.023 -1.612,-1.31 -2.283,-0.641 -0.944,0.943 -1.416,1.414 -2.361,2.356 0,10e-4 0.371,2.053 -0.285,2.607 z" />
      </g>
      <g
         style="fill:#000000;fill-opacity:1"
         id="g902">
        <path
           style="fill:#000000;fill-opacity:1"
           id="path904"
           d="m 453.685,320.333 c -1.05,1.83 -2.101,3.659 -3.148,5.49 -0.484,0.845 -0.637,2.041 -0.246,2.602 0.995,1.432 1.7,2.023 3.282,2.755 0.621,0.287 1.772,-0.071 2.52,-0.694 1.621,-1.351 3.241,-2.703 4.861,-4.055 0.659,-0.549 2.616,0.172 2.616,0.172 1.093,-0.767 1.639,-1.15 2.73,-1.916 0.775,-0.544 0.67,-1.601 -0.234,-2.359 -1.537,-1.291 -3.075,-2.58 -4.613,-3.871 -1.538,-1.291 -3.075,-2.581 -4.614,-3.872 -0.904,-0.759 -1.962,-0.679 -2.363,0.179 -0.565,1.209 -0.848,1.813 -1.413,3.021 -10e-4,0 1.049,1.801 0.622,2.548 z" />
      </g>
      <g
         style="fill:#000000;fill-opacity:1"
         id="g906">
        <path
           style="fill:#000000;fill-opacity:1"
           id="path908"
           d="m 465.732,329.19 c -0.36,2.078 -0.722,4.157 -1.081,6.236 -0.165,0.959 0.101,2.135 0.659,2.529 1.425,1.004 2.289,1.318 4.026,1.465 0.682,0.059 1.641,-0.672 2.13,-1.513 1.062,-1.824 2.121,-3.649 3.182,-5.474 0.432,-0.741 2.518,-0.733 2.518,-0.733 0.764,-1.094 1.146,-1.641 1.91,-2.734 0.543,-0.776 0.082,-1.733 -1.027,-2.138 -1.886,-0.686 -3.772,-1.373 -5.659,-2.06 -1.886,-0.687 -3.772,-1.372 -5.659,-2.06 -1.109,-0.404 -2.077,0.033 -2.16,0.977 -0.118,1.33 -0.177,1.994 -0.295,3.323 -0.001,0.001 1.602,1.336 1.456,2.182 z" />
      </g>
      <g
         style="fill:#000000;fill-opacity:1"
         id="g910">
        <path
           style="fill:#000000;fill-opacity:1"
           id="path912"
           d="m 480.082,333.393 c 0.373,2.076 0.743,4.153 1.118,6.23 0.172,0.957 0.824,1.972 1.484,2.15 1.682,0.457 2.602,0.457 4.284,0 0.66,-0.179 1.313,-1.193 1.483,-2.15 0.374,-2.077 0.746,-4.154 1.118,-6.23 0.152,-0.846 2.115,-1.551 2.115,-1.551 0.344,-1.289 0.516,-1.934 0.859,-3.223 0.244,-0.916 -0.516,-1.657 -1.695,-1.657 -2.008,0 -4.016,0 -6.023,-10e-4 -2.007,10e-4 -4.015,10e-4 -6.022,10e-4 -1.182,0 -1.94,0.741 -1.696,1.657 0.345,1.289 0.517,1.934 0.86,3.223 0,0 1.963,0.705 2.115,1.551 z" />
      </g>
      <g
         style="fill:#000000;fill-opacity:1"
         id="g914">
        <path
           style="fill:#000000;fill-opacity:1"
           id="path916"
           d="m 495.003,332.434 c 1.061,1.824 2.12,3.649 3.182,5.473 0.489,0.842 1.449,1.571 2.131,1.514 1.736,-0.146 2.601,-0.461 4.025,-1.465 0.56,-0.395 0.825,-1.57 0.659,-2.529 -0.359,-2.079 -0.721,-4.158 -1.081,-6.237 -0.146,-0.845 1.457,-2.181 1.457,-2.181 -0.117,-1.328 -0.176,-1.993 -0.294,-3.322 -0.083,-0.943 -1.052,-1.381 -2.16,-0.977 -1.887,0.687 -3.773,1.373 -5.66,2.06 -1.886,0.687 -3.772,1.373 -5.659,2.061 -1.109,0.403 -1.569,1.36 -1.027,2.137 0.765,1.094 1.147,1.641 1.911,2.734 0,-10e-4 2.086,-0.01 2.516,0.732 z" />
      </g>
      <g
         style="fill:#000000;fill-opacity:1"
         id="g918">
        <path
           style="fill:#000000;fill-opacity:1"
           id="path920"
           d="m 508.698,326.43 c 1.621,1.352 3.24,2.704 4.862,4.055 0.747,0.623 1.898,0.98 2.519,0.693 1.583,-0.731 2.287,-1.322 3.282,-2.754 0.392,-0.562 0.238,-1.758 -0.245,-2.602 -1.049,-1.831 -2.1,-3.661 -3.149,-5.492 -0.427,-0.744 0.624,-2.547 0.624,-2.547 -0.566,-1.208 -0.848,-1.813 -1.414,-3.021 -0.4,-0.858 -1.459,-0.938 -2.363,-0.179 -1.538,1.29 -3.076,2.581 -4.614,3.871 -1.537,1.29 -3.075,2.581 -4.613,3.872 -0.905,0.759 -1.01,1.814 -0.234,2.359 1.093,0.766 1.639,1.149 2.731,1.916 -10e-4,10e-4 1.956,-0.721 2.614,-0.171 z" />
      </g>
      <g
         style="fill:#000000;fill-opacity:1"
         id="g922">
        <path
           style="fill:#000000;fill-opacity:1"
           id="path924"
           d="m 519.513,316.105 c 1.984,0.716 3.97,1.433 5.955,2.146 0.915,0.33 2.119,0.272 2.604,-0.21 1.236,-1.229 1.696,-2.025 2.143,-3.709 0.175,-0.662 -0.378,-1.733 -1.121,-2.36 -1.611,-1.363 -3.225,-2.723 -4.837,-4.084 -0.655,-0.554 -0.285,-2.606 -0.285,-2.606 -0.945,-0.942 -1.417,-1.414 -2.361,-2.356 -0.671,-0.669 -1.693,-0.382 -2.283,0.64 -1.004,1.738 -2.007,3.477 -3.012,5.215 -1.003,1.739 -2.007,3.478 -3.011,5.217 -0.591,1.022 -0.328,2.05 0.587,2.296 1.289,0.347 1.933,0.521 3.222,0.867 0,0 1.592,-1.348 2.399,-1.056 z" />
      </g>
      <g
         style="fill:#000000;fill-opacity:1"
         id="g926">
        <path
           style="fill:#000000;fill-opacity:1"
           id="path928"
           d="m 526.144,302.703 c 2.11,-0.007 4.22,-0.011 6.33,-0.02 0.974,-0.003 2.085,-0.469 2.376,-1.088 0.742,-1.577 0.901,-2.483 0.745,-4.219 -0.063,-0.682 -0.948,-1.5 -1.861,-1.835 -1.98,-0.729 -3.961,-1.456 -5.942,-2.184 -0.805,-0.296 -1.159,-2.351 -1.159,-2.351 -1.21,-0.563 -1.814,-0.844 -3.025,-1.407 -0.858,-0.399 -1.721,0.22 -1.926,1.382 -0.349,1.977 -0.697,3.954 -1.046,5.931 -0.349,1.977 -0.697,3.954 -1.046,5.932 -0.205,1.163 0.394,2.039 1.338,1.958 1.329,-0.115 1.994,-0.173 3.323,-0.288 -10e-4,0.002 1.035,-1.809 1.893,-1.811 z" />
      </g>
      <g
         style="fill:#000000;fill-opacity:1"
         id="g930">
        <path
           style="fill:#000000;fill-opacity:1"
           id="path932"
           d="m 527.792,287.841 c 1.979,-0.728 3.961,-1.454 5.941,-2.183 0.913,-0.336 1.799,-1.154 1.86,-1.835 0.157,-1.736 -0.002,-2.642 -0.743,-4.22 -0.292,-0.62 -1.403,-1.085 -2.376,-1.087 -2.111,-0.007 -4.221,-0.013 -6.331,-0.02 -0.858,-0.003 -1.895,-1.813 -1.895,-1.813 -1.329,-0.115 -1.993,-0.173 -3.323,-0.287 -0.943,-0.082 -1.542,0.795 -1.337,1.958 0.349,1.977 0.697,3.954 1.045,5.931 0.35,1.977 0.698,3.954 1.047,5.932 0.205,1.163 1.067,1.781 1.927,1.382 1.209,-0.563 1.814,-0.844 3.024,-1.407 10e-4,0 0.355,-2.055 1.161,-2.351 z" />
      </g>
      <g
         style="fill:#000000;fill-opacity:1"
         id="g934">
        <path
           style="fill:#000000;fill-opacity:1"
           id="path936"
           d="m 524.257,273.313 c 1.612,-1.361 3.226,-2.721 4.837,-4.084 0.743,-0.628 1.296,-1.699 1.12,-2.361 -0.445,-1.685 -0.905,-2.481 -2.142,-3.71 -0.485,-0.483 -1.689,-0.54 -2.604,-0.209 -1.985,0.715 -3.971,1.431 -5.956,2.147 -0.807,0.291 -2.399,-1.056 -2.399,-1.056 -1.288,0.346 -1.933,0.52 -3.221,0.867 -0.915,0.246 -1.178,1.275 -0.587,2.297 1.003,1.739 2.007,3.477 3.011,5.216 1.004,1.738 2.008,3.477 3.012,5.216 0.591,1.022 1.612,1.309 2.283,0.64 0.944,-0.943 1.416,-1.415 2.361,-2.356 0,-0.002 -0.371,-2.054 0.285,-2.607 z" />
      </g>
      <g
         style="fill:#000000;fill-opacity:1"
         id="g938">
        <path
           style="fill:#000000;fill-opacity:1"
           id="path940"
           d="m 515.966,260.869 c 1.05,-1.831 2.101,-3.66 3.148,-5.492 0.484,-0.844 0.637,-2.04 0.246,-2.602 -0.995,-1.431 -1.7,-2.022 -3.282,-2.754 -0.621,-0.288 -1.772,0.071 -2.519,0.694 -1.622,1.351 -3.242,2.703 -4.862,4.054 -0.659,0.55 -2.616,-0.171 -2.616,-0.171 -1.093,0.766 -1.639,1.149 -2.73,1.916 -0.776,0.543 -0.671,1.601 0.233,2.359 1.538,1.291 3.076,2.581 4.613,3.872 1.538,1.29 3.076,2.58 4.614,3.871 0.905,0.759 1.963,0.678 2.364,-0.179 0.565,-1.209 0.848,-1.813 1.413,-3.022 0.001,0 -1.048,-1.802 -0.622,-2.546 z" />
      </g>
      <g
         style="fill:#000000;fill-opacity:1"
         id="g942">
        <path
           style="fill:#000000;fill-opacity:1"
           id="path944"
           d="m 503.919,252.011 c 0.36,-2.079 0.722,-4.158 1.081,-6.237 0.165,-0.959 -0.1,-2.135 -0.659,-2.529 -1.425,-1.004 -2.29,-1.319 -4.026,-1.466 -0.682,-0.058 -1.642,0.673 -2.13,1.514 -1.062,1.824 -2.122,3.649 -3.183,5.473 -0.431,0.742 -2.517,0.734 -2.517,0.734 -0.765,1.094 -1.146,1.64 -1.91,2.734 -0.543,0.777 -0.082,1.734 1.026,2.137 1.887,0.687 3.773,1.373 5.659,2.061 1.887,0.686 3.773,1.373 5.66,2.06 1.11,0.403 2.076,-0.034 2.161,-0.977 0.116,-1.33 0.176,-1.994 0.294,-3.323 10e-4,-0.002 -1.602,-1.336 -1.456,-2.181 z" />
      </g>
    </g>
  </g>
</svg>
